<svg xmlns:xlink="http://www.w3.org/1999/xlink" xmlns="http://www.w3.org/2000/svg" viewBox="0 0 30 30" width="36"  height="36" ><path d="M 13 5 A 1.0001 1.0001 0 0 0 12 6 L 12 7 L 3.7304688 7 A 2 2 0 0 0 2 6 A 2 2 0 0 0 0 8 A 2 2 0 0 0 2 10 A 2 2 0 0 0 3.7285156 9 L 8.4394531 9 C 7.4887589 9.997152 6.8080348 11.229007 6.3164062 12.519531 C 5.4300795 14.846139 5.1213465 17.295092 5.0371094 19 L 4 19 A 1.0001 1.0001 0 0 0 3 20 L 3 24 A 1.0001 1.0001 0 0 0 4 25 L 8 25 A 1.0001 1.0001 0 0 0 9 24 L 9 20 A 1.0001 1.0001 0 0 0 8 19 L 7.0429688 19 C 7.1344404 17.457442 7.4327386 15.201464 8.1835938 13.230469 C 8.6483465 12.010492 9.2802311 10.922746 10.064453 10.177734 C 10.620699 9.649301 11.243288 9.288419 12 9.1171875 L 12 10 A 1.0001 1.0001 0 0 0 13 11 L 17 11 A 1.0001 1.0001 0 0 0 18 10 L 18 9.1171875 C 18.756712 9.2884191 19.379301 9.6493009 19.935547 10.177734 C 20.719769 10.922746 21.351653 12.010492 21.816406 13.230469 C 22.567262 15.201464 22.86556 17.457442 22.957031 19 L 22 19 A 1.0001 1.0001 0 0 0 21 20 L 21 24 A 1.0001 1.0001 0 0 0 22 25 L 26 25 A 1.0001 1.0001 0 0 0 27 24 L 27 20 A 1.0001 1.0001 0 0 0 26 19 L 24.962891 19 C 24.878654 17.295092 24.56992 14.846139 23.683594 12.519531 C 23.191965 11.229007 22.511241 9.997152 21.560547 9 L 26.269531 9 A 2 2 0 0 0 28 10 A 2 2 0 0 0 30 8 A 2 2 0 0 0 28 6 A 2 2 0 0 0 26.271484 7 L 18 7 L 18 6 A 1.0001 1.0001 0 0 0 17 5 L 13 5 z M 14 7 L 16 7 L 16 7.8320312 A 1.0001 1.0001 0 0 0 16 8.1582031 L 16 9 L 14 9 L 14 8.1679688 A 1.0001 1.0001 0 0 0 14.013672 7.984375 A 1.0001 1.0001 0 0 0 14.013672 7.96875 A 1.0001 1.0001 0 0 0 14.011719 7.9453125 A 1.0001 1.0001 0 0 0 14.003906 7.8691406 A 1.0001 1.0001 0 0 0 14 7.8417969 L 14 7 z M 5 21 L 5.8320312 21 A 1.0001 1.0001 0 0 0 6.1582031 21 L 7 21 L 7 23 L 5 23 L 5 21 z M 23 21 L 23.832031 21 A 1.0001 1.0001 0 0 0 24.158203 21 L 25 21 L 25 23 L 23 23 L 23 21 z"></path></svg>